<svg width="18" height="17" viewBox="0 0 18 17" fill="none" xmlns="http://www.w3.org/2000/svg">
<path d="M0.916667 16.5V12.6042L12.9937 0.55C13.1771 0.366667 13.3833 0.229167 13.6125 0.1375C13.8417 0.0458333 14.0708 0 14.3 0C14.5444 0 14.7774 0.0458333 14.999 0.1375C15.2205 0.229167 15.4153 0.366667 15.5833 0.55L16.8667 1.83333C17.05 2.00139 17.1875 2.19618 17.2792 2.41771C17.3708 2.63924 17.4167 2.87222 17.4167 3.11667C17.4167 3.34583 17.3708 3.575 17.2792 3.80417C17.1875 4.03333 17.05 4.23958 16.8667 4.42292L4.8125 16.5H0.916667ZM2.75 14.6667H4.03333L13.0396 5.68333L12.3979 5.01875L11.7333 4.37708L2.75 13.3833V14.6667ZM12.3979 5.01875L11.7333 4.37708L13.0396 5.68333L12.3979 5.01875ZM10.0833 16.5C11.2139 16.5 12.2604 16.2174 13.2229 15.6521C14.1854 15.0868 14.6667 14.3 14.6667 13.2917C14.6667 12.7417 14.5215 12.2681 14.2312 11.8708C13.941 11.4736 13.5514 11.1299 13.0625 10.8396L11.7104 12.1917C12.0618 12.3444 12.3368 12.5125 12.5354 12.6958C12.734 12.8792 12.8333 13.0778 12.8333 13.2917C12.8333 13.6431 12.5545 13.9601 11.9969 14.2427C11.4392 14.5253 10.8014 14.6667 10.0833 14.6667C9.82361 14.6667 9.6059 14.7545 9.43021 14.9302C9.25451 15.1059 9.16667 15.3236 9.16667 15.5833C9.16667 15.8431 9.25451 16.0608 9.43021 16.2365C9.6059 16.4122 9.82361 16.5 10.0833 16.5ZM1.44375 9.4875L2.81875 8.1125C2.51319 7.99028 2.27257 7.86424 2.09687 7.73438C1.92118 7.60451 1.83333 7.47083 1.83333 7.33333C1.83333 7.15 1.97083 6.96667 2.24583 6.78333C2.52083 6.6 3.10139 6.31736 3.9875 5.93542C5.33194 5.35486 6.22569 4.82778 6.66875 4.35417C7.11181 3.88056 7.33333 3.34583 7.33333 2.75C7.33333 1.90972 6.99722 1.24132 6.325 0.744792C5.65278 0.248264 4.76667 0 3.66667 0C2.97917 0 2.36424 0.122222 1.82187 0.366667C1.27951 0.611111 0.863194 0.909028 0.572917 1.26042C0.404861 1.45903 0.336111 1.68056 0.366667 1.925C0.397222 2.16944 0.511806 2.36806 0.710417 2.52083C0.909028 2.68889 1.13056 2.75764 1.375 2.72708C1.61944 2.69653 1.82569 2.59722 1.99375 2.42917C2.20764 2.21528 2.44444 2.0625 2.70417 1.97083C2.96389 1.87917 3.28472 1.83333 3.66667 1.83333C4.29306 1.83333 4.75521 1.925 5.05312 2.10833C5.35104 2.29167 5.5 2.50556 5.5 2.75C5.5 2.96389 5.36632 3.15868 5.09896 3.33438C4.8316 3.51007 4.21667 3.81944 3.25417 4.2625C2.03194 4.79722 1.18403 5.28229 0.710417 5.71771C0.236806 6.15313 0 6.69167 0 7.33333C0 7.82222 0.129861 8.23854 0.389583 8.58229C0.649306 8.92604 1.00069 9.22778 1.44375 9.4875Z" fill="white"/>
</svg>
