<svg width="21" height="17" viewBox="0 0 21 17" fill="none" xmlns="http://www.w3.org/2000/svg">
<path d="M16.0032 15H21V17H13.8993L16.0032 15ZM2.85372 17L0.618305 14.875C0.215055 14.4917 0.0090461 14.0167 0.000279776 13.45C-0.00848654 12.8833 0.188756 12.4 0.592006 12L12.1635 0.6C12.5668 0.2 13.0621 0 13.6494 0C14.2368 0 14.7321 0.191667 15.1353 0.575L20.3688 5.55C20.7721 5.93333 20.9737 6.40833 20.9737 6.975C20.9737 7.54167 20.7721 8.01667 20.3688 8.4L11.5324 17H2.85372ZM10.6382 15L18.8961 6.95L13.6889 2L2.06475 13.4L3.74788 15H10.6382Z" fill="white"/>
</svg>
