<svg width="15" height="10" viewBox="0 0 15 10" fill="none" xmlns="http://www.w3.org/2000/svg">
<path d="M7.33333 8C8.16667 8 8.875 7.70833 9.45833 7.125C10.0417 6.54167 10.3333 5.83333 10.3333 5C10.3333 4.16667 10.0417 3.45833 9.45833 2.875C8.875 2.29167 8.16667 2 7.33333 2C6.5 2 5.79167 2.29167 5.20833 2.875C4.625 3.45833 4.33333 4.16667 4.33333 5C4.33333 5.83333 4.625 6.54167 5.20833 7.125C5.79167 7.70833 6.5 8 7.33333 8ZM7.33333 6.8C6.83333 6.8 6.40833 6.625 6.05833 6.275C5.70833 5.925 5.53333 5.5 5.53333 5C5.53333 4.5 5.70833 4.075 6.05833 3.725C6.40833 3.375 6.83333 3.2 7.33333 3.2C7.83333 3.2 8.25833 3.375 8.60833 3.725C8.95833 4.075 9.13333 4.5 9.13333 5C9.13333 5.5 8.95833 5.925 8.60833 6.275C8.25833 6.625 7.83333 6.8 7.33333 6.8ZM7.33333 10C5.71111 10 4.23333 9.54722 2.9 8.64167C1.56667 7.73611 0.6 6.52222 0 5C0.6 3.47778 1.56667 2.26389 2.9 1.35833C4.23333 0.452778 5.71111 0 7.33333 0C8.95556 0 10.4333 0.452778 11.7667 1.35833C13.1 2.26389 14.0667 3.47778 14.6667 5C14.0667 6.52222 13.1 7.73611 11.7667 8.64167C10.4333 9.54722 8.95556 10 7.33333 10ZM7.33333 8.66667C8.58889 8.66667 9.74167 8.33611 10.7917 7.675C11.8417 7.01389 12.6444 6.12222 13.2 5C12.6444 3.87778 11.8417 2.98611 10.7917 2.325C9.74167 1.66389 8.58889 1.33333 7.33333 1.33333C6.07778 1.33333 4.925 1.66389 3.875 2.325C2.825 2.98611 2.02222 3.87778 1.46667 5C2.02222 6.12222 2.825 7.01389 3.875 7.675C4.925 8.33611 6.07778 8.66667 7.33333 8.66667Z" fill="white"/>
</svg>
