<svg width="12" height="12" viewBox="0 0 12 12" fill="none" xmlns="http://www.w3.org/2000/svg">
<path d="M12 2.66667V10.6667C12 11.0333 11.8696 11.3473 11.6087 11.6087C11.3473 11.8696 11.0333 12 10.6667 12H1.33333C0.966667 12 0.652667 11.8696 0.391333 11.6087C0.130444 11.3473 0 11.0333 0 10.6667V1.33333C0 0.966667 0.130444 0.652667 0.391333 0.391333C0.652667 0.130444 0.966667 0 1.33333 0H9.33333L12 2.66667ZM10.6667 3.23333L8.76667 1.33333H1.33333V10.6667H10.6667V3.23333ZM6 10C6.55556 10 7.02778 9.80556 7.41667 9.41667C7.80556 9.02778 8 8.55556 8 8C8 7.44444 7.80556 6.97222 7.41667 6.58333C7.02778 6.19444 6.55556 6 6 6C5.44444 6 4.97222 6.19444 4.58333 6.58333C4.19444 6.97222 4 7.44444 4 8C4 8.55556 4.19444 9.02778 4.58333 9.41667C4.97222 9.80556 5.44444 10 6 10ZM2 4.66667H8V2H2V4.66667ZM1.33333 3.23333V10.6667V1.33333V3.23333Z" fill="white"/>
</svg>
